<?xml version="1.0" standalone="no"?>
<!DOCTYPE svg PUBLIC "-//W3C//DTD SVG 20010904//EN"
 "http://www.w3.org/TR/2001/REC-SVG-20010904/DTD/svg10.dtd">
<svg version="1.0" xmlns="http://www.w3.org/2000/svg"
 width="728.000000pt" height="484.000000pt" viewBox="0 0 728.000000 484.000000"
 preserveAspectRatio="xMidYMid meet">

<g transform="translate(0.000000,484.000000) scale(0.100000,-0.100000)"
fill="#000000" stroke="none">
<path d="M1513 4495 c-86 -24 -154 -64 -224 -134 -99 -99 -148 -216 -149 -353
0 -64 30 -170 56 -199 40 -44 72 -13 142 131 49 102 88 151 149 187 94 55 216
24 305 -76 94 -108 120 -176 262 -701 191 -705 361 -1239 484 -1520 224 -508
476 -717 947 -785 188 -28 403 -33 900 -25 750 14 1031 33 1065 75 20 24 -57
49 -160 52 -466 14 -1094 65 -1515 124 -202 28 -406 88 -514 151 -78 46 -189
159 -242 248 -103 172 -174 379 -313 920 -24 96 -70 272 -101 390 -204 781
-242 913 -297 1035 -112 250 -295 422 -513 481 -64 18 -215 17 -282 -1z"/>
<path d="M3320 3603 c-311 -12 -741 -51 -758 -68 -3 -3 -2 -8 1 -11 4 -4 229
-7 501 -8 272 -1 497 -4 501 -7 3 -4 0 -109 -6 -235 -6 -126 -9 -313 -6 -415
l5 -187 -51 -6 c-29 -3 -110 -6 -182 -8 l-130 -1 -52 199 c-77 296 -127 449
-158 490 -35 46 -50 -56 -35 -255 31 -426 129 -1001 206 -1203 35 -93 69 -120
181 -147 234 -54 269 -56 1218 -56 957 1 979 2 1072 55 70 40 99 101 108 225
8 115 41 367 116 880 90 615 94 649 79 685 -23 55 -52 63 -290 71 -198 7
-2149 9 -2320 2z m673 -102 c98 -5 181 -11 184 -15 3 -3 -6 -120 -20 -258 -14
-139 -28 -315 -31 -391 -3 -77 -8 -142 -11 -147 -3 -4 -67 -9 -142 -9 -76 -1
-154 -4 -174 -7 -22 -4 -39 -2 -44 5 -7 12 -11 34 -80 491 -25 162 -48 305
-51 318 -6 22 -5 22 92 21 55 0 179 -4 277 -8z m620 -27 c81 -4 147 -10 147
-15 0 -5 -11 -84 -26 -176 -31 -206 -54 -417 -54 -500 0 -49 -4 -64 -17 -72
-19 -9 -338 -20 -346 -11 -3 3 -19 163 -36 355 -17 193 -34 370 -37 394 l-6
44 114 -6 c62 -4 179 -10 261 -13z m504 -25 c98 -6 179 -12 180 -13 1 -1 -11
-58 -28 -126 -47 -195 -86 -389 -100 -492 l-12 -95 -145 -6 c-80 -4 -147 -6
-148 -4 -1 1 -9 151 -18 332 -9 182 -18 349 -19 373 l-2 42 57 0 c32 0 137 -5
235 -11z m526 -36 c77 -6 77 -6 77 -34 0 -16 -11 -71 -25 -123 -13 -52 -41
-199 -62 -326 l-38 -231 -70 6 c-38 3 -96 8 -128 11 l-59 6 6 87 c3 47 8 185
11 306 3 121 8 242 11 269 l6 49 97 -7 c53 -3 131 -9 174 -13z m-2228 -838
c77 -8 143 -15 148 -15 4 0 7 -19 7 -42 0 -101 36 -356 77 -545 5 -21 3 -22
-53 -16 -33 3 -92 11 -131 17 -41 7 -73 8 -73 3 0 -5 -6 -7 -12 -4 -7 2 -12
10 -10 16 1 6 -16 71 -37 144 -36 120 -121 437 -121 451 0 9 52 7 205 -9z
m583 -51 l122 -7 0 -31 c0 -85 22 -361 35 -439 8 -48 15 -93 15 -100 0 -9 -39
-11 -170 -9 l-170 3 0 102 c0 100 -16 252 -44 409 -7 43 -10 80 -7 84 3 3 26
3 51 0 25 -3 100 -9 168 -12z m1568 -21 c-19 -95 -77 -544 -71 -554 4 -6 -206
-20 -213 -14 -1 1 4 31 12 66 19 81 36 266 36 389 0 52 4 100 8 106 6 9 94 22
215 32 15 2 18 -3 13 -25z m-983 -3 l88 0 -6 -47 c-6 -47 9 -370 21 -465 l7
-48 -171 0 -171 0 6 103 c5 90 -7 301 -24 426 l-6 44 84 -6 c46 -4 124 -7 172
-7z m530 -117 c-4 -65 -8 -191 -8 -281 l0 -162 -118 0 -118 0 8 38 c4 20 7
146 6 280 l-2 242 120 0 121 0 -9 -117z"/>
<path d="M3400 897 c-160 -47 -250 -155 -250 -302 0 -123 70 -224 195 -281 50
-23 74 -28 146 -28 79 -1 91 2 161 37 119 58 181 152 180 273 -1 164 -137 297
-314 309 -45 3 -90 0 -118 -8z m169 -133 c68 -40 96 -126 62 -192 -32 -63 -73
-87 -152 -87 -56 0 -71 4 -102 28 -60 46 -81 108 -58 170 14 35 68 85 104 96
41 13 111 6 146 -15z"/>
<path d="M4658 896 c-150 -43 -242 -158 -243 -301 0 -178 144 -308 340 -308
139 0 247 60 310 174 26 47 30 64 30 134 0 92 -19 137 -86 210 -77 84 -235
125 -351 91z m162 -128 c113 -57 122 -193 18 -261 -52 -34 -114 -36 -175 -6
-98 48 -117 163 -39 237 58 55 126 65 196 30z"/>
</g>
</svg>
