<?xml version="1.0" standalone="no"?>
<!DOCTYPE svg PUBLIC "-//W3C//DTD SVG 20010904//EN"
 "http://www.w3.org/TR/2001/REC-SVG-20010904/DTD/svg10.dtd">
<svg version="1.0" xmlns="http://www.w3.org/2000/svg"
 width="920.000000pt" height="1036.000000pt" viewBox="0 0 920.000000 1036.000000"
 preserveAspectRatio="xMidYMid meet">

<g transform="translate(0.000000,1036.000000) scale(0.100000,-0.100000)"
fill="#000000" stroke="none">
<path d="M4455 10049 c3 -4 -2 -9 -10 -13 -24 -9 -17 -25 8 -20 12 3 28 6 35
6 6 1 12 6 12 12 0 6 5 4 10 -4 5 -8 10 -10 10 -3 0 12 24 12 36 0 4 -4 13 -2
21 4 10 9 13 8 13 -2 0 -12 2 -12 9 -1 7 11 9 11 14 -2 4 -9 14 -13 26 -11 11
2 23 -1 26 -6 4 -5 11 -7 16 -4 5 4 9 1 9 -6 0 -7 3 -9 7 -6 3 4 13 1 21 -6
13 -10 15 -9 8 3 -4 9 -1 8 7 -2 8 -10 19 -18 26 -18 6 0 11 -5 11 -12 0 -6 3
-9 6 -5 14 13 118 -93 160 -163 24 -40 77 -168 77 -188 0 -7 7 -10 15 -7 12 4
12 2 3 -8 -9 -11 -7 -17 6 -28 16 -12 17 -12 8 1 -5 9 -2 7 8 -3 15 -17 22
-38 18 -59 0 -5 3 -8 7 -8 9 0 11 -7 15 -57 1 -17 5 -29 8 -27 4 2 9 -5 12
-16 3 -12 1 -18 -5 -14 -5 3 -2 -8 7 -26 12 -23 13 -30 3 -24 -10 6 -11 5 -2
-7 7 -8 12 -55 12 -109 0 -52 1 -97 2 -100 2 -3 2 -9 1 -14 -1 -5 6 -3 15 5
10 8 15 9 11 2 -4 -6 -3 -14 2 -17 6 -4 6 -18 1 -35 -4 -16 -5 -32 -2 -36 21
-20 18 -333 -4 -354 -2 -2 4 -9 12 -16 14 -10 16 -31 15 -121 -2 -215 -12
-340 -32 -391 -12 -33 -11 -52 2 -33 9 12 10 11 6 -7 -3 -13 -2 -23 3 -23 4 0
4 -19 -2 -42 -5 -24 -11 -54 -13 -68 -5 -27 -12 -62 -15 -70 -1 -3 -2 -9 -1
-13 1 -5 -3 -6 -8 -3 -5 3 -11 0 -14 -8 -7 -18 -40 -14 -45 5 -3 11 -1 11 7
-1 7 -9 11 -10 11 -3 0 15 -15 25 -24 16 -34 -34 -48 28 -33 142 10 73 20 272
20 410 1 149 -16 590 -23 590 -3 0 -9 38 -16 90 -8 72 -12 96 -19 130 -3 17
-8 39 -10 50 -2 11 -7 31 -10 45 -4 14 -7 35 -8 48 -1 12 -4 22 -8 22 -5 0 -6
9 -4 20 2 11 0 20 -5 20 -4 0 -7 11 -6 25 2 15 -1 22 -7 18 -6 -4 -8 0 -4 11
4 9 3 15 -2 12 -5 -3 -12 1 -15 10 -4 9 -2 13 5 8 6 -3 4 5 -5 18 -9 14 -13
28 -9 33 5 4 2 5 -5 1 -7 -4 -9 -12 -6 -18 4 -7 2 -8 -5 -4 -6 4 -9 12 -5 17
3 5 0 16 -6 24 -7 8 -9 22 -6 31 5 14 4 15 -8 5 -13 -11 -15 -9 -11 9 3 17 1
20 -13 15 -9 -3 -13 -3 -9 1 4 4 1 14 -6 23 -11 14 -10 15 7 1 17 -13 16 -10
-4 30 -32 64 -40 72 -56 59 -7 -6 -12 -16 -10 -22 1 -7 1 -9 -1 -4 -3 4 -8 5
-13 2 -4 -3 -19 8 -33 25 -16 19 -27 25 -30 17 -3 -6 -6 -3 -6 8 -1 17 -3 17
-11 5 -8 -12 -10 -12 -10 5 0 15 -3 17 -9 7 -6 -11 -10 -10 -15 5 -7 17 -8 17
-22 -1 -14 -20 -14 -20 -15 0 0 19 -1 19 -8 0 -7 -18 -8 -18 -14 -2 -6 14 -10
16 -21 7 -11 -9 -16 -9 -22 0 -5 8 -3 9 6 4 9 -5 11 -4 6 4 -6 9 -11 9 -24 -1
-9 -7 -13 -8 -9 -2 7 11 -19 41 -28 33 -2 -3 -6 -17 -9 -33 -6 -31 -16 -48
-16 -26 0 9 -5 7 -16 -6 -8 -10 -13 -14 -10 -7 4 7 -1 10 -11 8 -10 -2 -19 -4
-20 -5 -2 -2 -6 -3 -10 -5 -24 -6 -43 -18 -43 -27 0 -6 8 -4 18 3 16 13 16 12
3 -4 -15 -18 -15 -18 -29 0 -14 17 -14 17 -9 -4 3 -15 1 -20 -9 -16 -8 3 -11
10 -7 16 4 7 -8 0 -27 -15 -31 -24 -35 -25 -57 -11 -13 8 -23 11 -23 7 0 -5
-4 -3 -9 4 -7 11 -9 10 -14 -3 -4 -9 -3 -14 3 -10 6 4 9 -3 6 -17 -2 -13 0
-30 5 -39 5 -11 3 -16 -7 -17 -7 -1 -21 -3 -30 -4 -9 -1 -19 -10 -22 -21 -4
-15 -7 -16 -14 -5 -7 9 -8 6 -5 -10 4 -18 3 -21 -7 -12 -10 7 -16 6 -25 -3 -6
-8 -8 -17 -4 -20 3 -4 -2 -7 -13 -8 -18 0 -18 -1 1 -9 18 -8 17 -9 -8 -9 -17
-1 -26 -5 -22 -11 8 -14 -14 -42 -27 -34 -5 3 -15 0 -23 -6 -8 -7 -15 -9 -15
-5 0 4 -6 2 -13 -4 -8 -6 -18 -7 -22 -3 -5 4 -5 1 -1 -5 4 -8 2 -13 -6 -13 -8
0 -6 -5 5 -11 9 -5 17 -15 17 -22 0 -8 -3 -8 -9 1 -6 10 -10 4 -15 -19 -3 -18
-9 -29 -13 -26 -7 8 -36 -30 -39 -51 -1 -7 -19 -29 -38 -50 -20 -20 -34 -43
-31 -50 3 -7 1 -11 -4 -8 -11 7 -53 -69 -43 -79 4 -5 2 -5 -4 -2 -7 4 -15 0
-18 -9 -4 -10 -2 -13 7 -8 9 6 9 5 0 -8 -7 -8 -9 -19 -5 -23 4 -5 2 -5 -4 -2
-7 4 -24 -20 -45 -63 -18 -39 -36 -70 -39 -70 -4 0 -7 -6 -7 -13 0 -16 -40
-74 -68 -99 -13 -12 -15 -17 -6 -16 23 4 18 -31 -12 -89 -15 -29 -25 -53 -23
-53 3 0 -1 -12 -9 -27 -8 -15 -12 -30 -9 -35 3 -4 0 -8 -7 -8 -7 0 -10 -3 -6
-6 3 -4 -2 -23 -13 -44 -11 -21 -16 -40 -13 -44 4 -3 1 -6 -6 -6 -7 0 -9 -4
-6 -10 3 -5 2 -10 -2 -10 -5 0 -16 -12 -25 -27 -12 -22 -13 -32 -4 -46 8 -13
8 -20 -3 -26 -11 -7 -11 -9 0 -14 11 -4 11 -6 1 -6 -7 -1 -10 -5 -7 -11 3 -5
2 -10 -3 -10 -5 0 -9 -7 -10 -15 -1 -8 -3 -22 -4 -30 -1 -8 -5 -15 -9 -15 -4
0 -6 -9 -4 -20 2 -11 0 -20 -4 -20 -4 0 -8 -6 -9 -12 0 -7 -3 -24 -7 -38 -4
-14 -7 -31 -7 -37 -1 -7 -5 -13 -10 -13 -5 0 -7 -4 -4 -9 3 -5 -1 -12 -10 -15
-9 -4 -14 -13 -10 -21 3 -8 0 -15 -7 -15 -8 0 -8 -3 2 -9 11 -7 11 -9 0 -14
-12 -5 -12 -6 0 -6 11 -1 11 -4 0 -18 -12 -15 -12 -16 1 -8 13 8 13 6 1 -8 -7
-9 -14 -31 -15 -49 -1 -18 -8 -44 -15 -57 -10 -17 -10 -21 -1 -16 7 4 4 -5 -6
-21 -14 -21 -15 -26 -4 -19 13 8 13 7 1 -8 -7 -9 -10 -17 -6 -17 4 0 1 -8 -6
-17 -11 -13 -11 -15 -1 -9 11 7 11 2 -1 -20 -8 -16 -13 -39 -12 -51 1 -13 -3
-19 -8 -16 -6 4 -8 -1 -4 -11 4 -9 3 -15 -2 -12 -5 3 -11 -1 -15 -9 -3 -8 -1
-17 5 -20 12 -8 2 -25 -14 -25 -7 0 -6 4 3 10 9 6 10 10 3 10 -23 0 -24 -20
-1 -29 13 -6 17 -10 9 -10 -11 -1 -11 -4 0 -18 8 -9 9 -14 3 -10 -7 4 -14 -2
-17 -13 -3 -12 -1 -18 5 -14 5 4 4 -4 -3 -17 -17 -31 -20 -51 -7 -43 7 4 8 2
4 -5 -9 -14 -17 -54 -21 -106 -3 -41 -23 -95 -35 -95 -4 0 -7 -7 -8 -15 -1 -8
-3 -21 -4 -29 -1 -7 -8 -13 -17 -11 -9 1 -19 -3 -23 -9 -5 -7 -8 -3 -8 8 0 20
0 20 -15 0 -14 -18 -15 -18 -6 7 7 19 6 26 -4 26 -7 0 -11 -7 -8 -16 4 -14 3
-14 -5 -1 -7 9 -7 18 -1 26 6 7 4 16 -6 24 -8 7 -13 15 -10 19 2 4 5 35 6 69
1 36 7 62 13 62 6 0 4 5 -4 10 -8 5 -10 10 -4 10 7 0 10 13 9 30 -1 17 1 30 5
30 3 0 7 6 8 13 1 15 10 52 12 52 1 0 3 27 4 60 1 34 6 67 11 75 6 9 4 11 -6
5 -12 -8 -12 -6 0 8 7 9 11 28 9 42 -3 13 -1 22 3 19 8 -5 14 33 10 65 -2 7 2
10 7 7 5 -3 8 7 7 24 -1 17 2 30 8 30 6 0 7 3 4 6 -3 4 -2 16 4 27 9 15 8 18
-2 12 -8 -6 -10 -4 -3 6 9 14 14 34 16 57 1 6 4 12 8 12 4 0 7 8 7 18 -1 24
23 104 35 120 7 8 6 12 -3 12 -9 0 -10 3 -3 8 10 6 21 38 30 80 1 8 6 21 10
30 7 16 9 25 17 55 19 69 31 104 39 115 8 9 7 11 -5 6 -9 -3 -21 -27 -27 -52
-6 -26 -13 -56 -16 -67 -3 -11 -6 -24 -7 -30 -2 -5 -6 -15 -9 -21 -4 -6 -9
-21 -12 -35 -2 -13 -10 -37 -17 -54 -14 -34 -20 -54 -21 -72 -1 -7 -5 -13 -10
-13 -4 0 -7 -3 -6 -7 0 -5 -2 -15 -5 -23 -26 -59 -44 -137 -35 -152 5 -12 5
-18 -2 -18 -5 0 -10 -12 -10 -26 0 -15 -13 -69 -30 -121 -16 -51 -30 -112 -30
-136 0 -23 -5 -62 -11 -87 -6 -25 -12 -63 -14 -84 -3 -21 -11 -46 -19 -55 -36
-41 -58 -105 -63 -186 -5 -72 -3 -89 16 -128 12 -25 33 -57 46 -71 25 -27 80
-54 103 -50 6 1 18 2 26 3 20 2 105 79 121 111 31 59 47 125 50 206 4 75 2 87
-16 105 -17 17 -18 23 -8 36 8 8 14 29 14 47 0 17 4 37 9 45 7 10 6 12 -4 6
-9 -6 -11 -4 -5 5 5 8 10 39 12 69 2 31 6 63 9 71 3 8 8 30 10 48 9 68 45 207
59 222 7 8 16 31 19 50 3 19 8 45 11 58 3 12 7 31 9 41 23 100 133 425 185
546 33 76 146 303 157 315 7 8 13 18 13 23 0 4 7 17 14 30 56 92 83 134 94
145 7 7 13 17 13 20 0 4 10 18 23 32 12 14 33 39 45 55 43 55 159 170 203 200
24 17 53 38 64 49 23 22 171 93 233 111 89 27 214 2 248 -50 9 -13 24 -27 33
-30 9 -3 36 -46 60 -96 39 -83 41 -93 27 -107 -14 -14 -16 -14 -22 2 -6 15 -7
15 -21 -1 -8 -10 -11 -12 -7 -4 9 19 -17 33 -35 18 -10 -8 -13 -8 -8 -1 7 13
-51 46 -65 38 -16 -10 2 -22 25 -17 21 5 21 5 3 -9 -16 -13 -16 -15 -2 -15 9
0 16 5 16 10 0 6 3 7 6 4 4 -4 1 -13 -5 -21 -11 -13 -9 -15 9 -11 18 3 20 2
10 -10 -7 -8 -9 -15 -5 -15 4 0 3 -6 -2 -12 -5 -7 -8 -22 -8 -34 1 -11 -4 -21
-11 -21 -10 0 -11 4 -3 13 7 8 6 14 -2 20 -8 5 -9 3 -4 -6 6 -9 4 -12 -6 -8
-11 4 -14 -3 -13 -28 1 -19 -2 -32 -6 -29 -5 3 -6 15 -4 28 4 22 4 22 -6 -1
-5 -13 -7 -28 -4 -33 3 -5 0 -8 -8 -7 -7 2 -12 -3 -10 -10 1 -8 -2 -11 -9 -7
-8 5 -8 10 0 18 6 6 11 16 11 21 0 6 -5 3 -11 -7 -6 -9 -14 -15 -19 -12 -4 3
-6 -5 -3 -17 5 -22 5 -22 -10 -3 -14 18 -15 18 -12 -6 2 -16 -2 -26 -11 -26
-7 0 -11 5 -8 11 3 6 -4 0 -16 -14 -12 -14 -19 -20 -17 -15 4 7 -13 11 -42 11
-34 1 -48 -3 -48 -12 0 -8 3 -12 5 -9 3 3 16 -4 28 -16 16 -15 24 -17 29 -8 6
8 4 10 -6 4 -11 -7 -12 -6 -2 7 7 8 9 19 5 23 -4 5 -2 5 5 1 6 -3 9 -16 7 -29
-3 -12 -5 -34 -5 -48 0 -17 -11 -36 -27 -50 l-27 -24 23 26 c12 14 22 29 22
34 0 4 -13 -9 -30 -30 -16 -21 -30 -46 -30 -57 0 -13 -4 -17 -12 -12 -8 5 -7
0 2 -11 9 -11 10 -16 3 -11 -8 4 -13 2 -13 -4 0 -6 -5 -8 -12 -4 -6 4 -8 3 -5
-3 3 -5 -3 -17 -14 -26 -10 -9 -19 -14 -19 -10 0 4 -7 -2 -16 -13 -8 -10 -13
-14 -10 -8 9 18 -43 10 -62 -10 -9 -10 -11 -16 -4 -12 6 4 12 3 12 -3 0 -5 9
-8 20 -6 11 2 27 -3 35 -11 10 -11 15 -12 15 -3 0 7 3 9 7 6 3 -4 -3 -16 -15
-27 -26 -25 -29 -38 -4 -19 11 9 10 5 -4 -11 -31 -36 -50 -75 -32 -64 7 4 4
-3 -7 -16 -11 -13 -14 -20 -7 -16 10 6 10 2 1 -18 -7 -14 -17 -23 -23 -19 -6
3 -8 3 -4 -2 4 -4 2 -15 -5 -23 -10 -13 -9 -14 2 -7 10 6 12 4 6 -6 -16 -27
-49 -59 -62 -59 -7 0 -13 -5 -13 -11 0 -5 6 -7 13 -3 8 5 8 2 -2 -9 -12 -15
-9 -21 11 -18 4 0 4 -7 1 -16 -4 -11 -3 -14 5 -9 16 9 4 -23 -17 -48 -9 -11
-10 -16 -4 -12 10 5 11 1 3 -18 -5 -14 -7 -26 -4 -26 2 0 0 -9 -6 -21 -11 -20
-21 -53 -22 -76 -1 -9 -5 -9 -13 -3 -8 7 -11 4 -10 -10 1 -11 4 -22 7 -26 11
-10 -3 -34 -21 -34 -14 0 -14 -2 -1 -10 13 -8 12 -10 -2 -10 -10 0 -18 -5 -18
-11 0 -5 6 -7 13 -3 7 4 8 3 4 -2 -5 -5 -16 -9 -25 -9 -10 0 -16 -7 -16 -18 2
-13 -1 -15 -11 -7 -9 7 -16 6 -26 -7 -12 -14 -12 -16 0 -9 9 6 12 5 9 -5 -3
-8 -11 -13 -17 -11 -7 1 -10 -2 -6 -8 3 -6 11 -7 17 -4 7 5 9 1 5 -9 -9 -24 0
-21 14 4 9 17 8 20 -2 14 -7 -5 -10 -4 -6 3 13 20 42 6 39 -19 -2 -19 -1 -21
7 -9 7 9 11 10 11 3 0 -15 50 -7 67 10 7 7 33 93 58 191 52 205 169 517 221
591 12 17 32 50 44 75 41 82 139 192 263 297 44 37 88 56 100 44 15 -15 35
-92 48 -179 5 -40 13 -82 18 -95 4 -12 8 -78 10 -147 1 -69 6 -212 12 -319 6
-107 7 -244 4 -305 -4 -61 -8 -133 -9 -161 -2 -30 -15 -75 -32 -110 -26 -53
-29 -71 -29 -155 0 -109 19 -158 79 -203 108 -83 249 48 272 253 9 79 19 91
34 44 22 -65 15 -267 -10 -314 -6 -11 -8 -20 -6 -20 3 0 -9 -15 -27 -34 -18
-19 -34 -34 -37 -34 -3 0 -7 0 -10 -2 -23 -9 -68 -13 -140 -14 -68 -1 -92 3
-114 18 -17 11 -25 13 -20 5 7 -13 -16 6 -71 58 -34 32 -49 87 -49 183 -1 114
7 147 60 263 25 54 44 101 41 103 -5 5 -241 -75 -917 -311 -311 -108 -585
-203 -610 -212 -68 -22 -72 -32 -55 -128 2 -11 16 -58 33 -105 16 -47 28 -92
26 -100 -2 -13 -10 -54 -17 -85 -2 -5 -6 -15 -9 -21 -4 -6 -10 -24 -13 -40 -9
-44 -10 -45 -34 -101 -19 -43 -91 -128 -91 -107 0 4 -8 0 -17 -8 -13 -10 -36
-14 -83 -11 -87 5 -90 5 -90 15 0 4 -7 8 -15 8 -7 0 -19 8 -24 18 -6 9 -11 13
-11 9 0 -4 -6 -2 -14 5 -8 7 -12 16 -9 21 2 4 0 7 -5 7 -5 0 -13 10 -16 23
-64 223 -66 287 -12 374 20 32 36 61 36 65 0 8 -38 17 -43 9 -2 -3 -2 -1 -1 6
2 7 -1 15 -6 18 -5 3 -11 -5 -13 -17 -3 -16 -4 -15 -2 5 1 15 -2 27 -7 27 -4
0 -9 -8 -9 -17 -1 -10 -2 -25 -3 -33 0 -8 -8 -15 -16 -15 -8 0 -18 -4 -21 -9
-4 -5 -10 1 -14 13 -3 12 -11 19 -16 15 -6 -3 -5 -12 3 -22 11 -15 11 -15 -4
-4 -10 8 -19 9 -22 3 -3 -5 -1 -11 6 -13 8 -3 7 -6 -4 -10 -11 -5 -15 0 -14
14 0 12 -4 23 -10 25 -7 2 -11 -7 -9 -25 2 -30 -7 -35 -33 -19 -7 5 -9 13 -6
19 4 6 -2 8 -17 4 -21 -6 -22 -6 -6 4 18 12 32 7 32 -11 0 -15 19 -10 21 6 1
8 -3 15 -9 15 -7 0 -4 5 6 11 13 8 22 7 32 -1 9 -7 15 -8 20 0 3 5 0 10 -7 10
-18 1 36 29 97 52 61 22 66 22 58 2 -4 -11 -8 -12 -13 -4 -5 8 -9 7 -13 -4 -4
-9 -1 -15 6 -13 7 1 11 -4 9 -10 -1 -7 2 -13 8 -13 10 0 12 4 13 43 1 12 8 27
17 34 50 38 -40 7 -401 -137 -222 -89 -406 -163 -407 -165 -4 -4 -4 -4 -122
-1175 -44 -437 -98 -970 -120 -1185 -78 -767 -131 -1290 -200 -1980 -39 -385
-89 -875 -110 -1090 -22 -214 -43 -420 -46 -456 l-7 -67 54 -15 c30 -9 774
-196 1654 -417 880 -221 1823 -458 2096 -526 l497 -126 363 102 c1617 454
1964 551 1968 556 2 2 4 23 3 46 0 36 -158 1411 -307 2688 -19 162 -84 725
-145 1250 -104 906 -252 2185 -339 2939 -22 188 -45 349 -51 356 -6 7 -39 16
-73 20 -73 8 -575 102 -598 113 -22 9 -237 263 -373 440 -60 78 -115 142 -123
142 -9 0 -13 -16 -13 -53 0 -29 -13 -435 -30 -902 -16 -468 -39 -1106 -50
-1420 -10 -313 -22 -628 -25 -700 -3 -71 -26 -697 -50 -1390 -66 -1843 -84
-2317 -90 -2323 -3 -3 -7 -3 -10 0 -5 4 29 3065 63 5798 5 344 7 627 5 630 -2
2 -176 -53 -386 -123 -210 -70 -386 -127 -390 -127 -4 0 -6 46 -4 103 l4 102
34 17 c27 14 29 17 9 12 -26 -5 -26 -5 -26 63 0 37 -3 115 -8 173 -12 164 -25
290 -30 299 -2 3 -7 35 -11 71 -12 119 -14 135 -28 180 -20 68 -16 102 13 117
21 11 27 10 38 -4 6 -9 12 -14 12 -10 0 11 24 -9 91 -76 123 -123 208 -284
270 -509 16 -60 29 -111 29 -113 0 -3 6 -5 14 -5 20 0 28 28 15 51 -10 20 -20
53 -21 77 -1 6 -4 12 -8 12 -4 0 -7 6 -8 13 -1 20 -10 56 -17 67 -7 11 -16 47
-17 68 -1 6 -5 12 -10 12 -5 0 -6 5 -3 10 3 6 1 10 -5 10 -6 0 -9 3 -6 8 2 4
-3 23 -11 42 -9 19 -15 38 -15 43 1 4 -3 7 -9 7 -5 0 -7 5 -4 10 3 6 1 10 -5
10 -6 0 -8 5 -5 10 3 6 1 10 -5 10 -6 0 -9 4 -5 9 3 5 0 15 -7 23 -7 7 -14 20
-16 28 -2 8 -8 17 -13 18 -5 2 -6 9 -2 15 4 6 0 8 -10 4 -12 -4 -15 -1 -12 14
2 11 0 17 -6 14 -5 -4 -9 1 -9 10 0 8 -7 18 -15 21 -8 4 -15 12 -15 18 0 7 -7
21 -16 32 -8 10 -12 13 -8 5 5 -10 3 -12 -5 -7 -9 6 -9 11 -1 21 8 10 8 15 -1
21 -8 5 -9 3 -4 -6 5 -9 4 -11 -4 -6 -7 5 -9 12 -3 19 5 7 4 22 -4 37 l-14 25
-1 -30 c-1 -16 -1 -34 0 -38 1 -5 -2 -6 -7 -3 -5 3 -7 18 -4 34 2 16 0 32 -6
36 -5 3 -7 -5 -4 -19 2 -15 0 -25 -7 -25 -7 0 -9 -5 -5 -12 6 -10 5 -10 -8 -1
-8 7 -17 10 -20 7 -3 -3 -5 3 -4 13 0 12 -6 18 -18 18 -11 0 -21 7 -23 15 -4
13 -3 13 7 0 10 -13 11 -13 7 0 -2 8 -9 16 -15 16 -7 1 -14 3 -17 4 -14 7 -31
5 -44 -4 -11 -8 -13 -8 -8 1 4 7 -4 23 -20 39 -16 14 -21 23 -13 19 10 -6 8
-1 -4 13 -11 12 -15 22 -11 22 5 0 -1 10 -13 23 -22 24 -57 97 -46 97 4 0 -2
8 -13 18 -10 9 -40 46 -65 82 -26 36 -57 74 -70 85 -43 37 -123 91 -155 104
-18 7 -33 20 -33 28 0 8 -5 11 -12 7 -8 -5 -9 -2 -5 10 6 14 4 15 -14 5 -15
-8 -19 -8 -15 0 5 8 -4 9 -31 5 -52 -9 -126 -12 -138 -5 -15 8 -55 9 -50 0z
m32 -208 c0 -11 -5 -18 -9 -15 -4 3 -5 11 -1 19 7 21 12 19 10 -4z m-80 -56
c0 -8 -4 -12 -9 -9 -5 3 -6 10 -3 15 9 13 12 11 12 -6z m376 -20 c4 -8 1 -17
-5 -21 -7 -4 -8 -3 -4 4 4 7 2 12 -4 12 -6 0 -8 5 -5 10 8 14 12 13 18 -5z
m-477 -27 c4 -7 4 -10 -1 -6 -4 4 -15 2 -24 -5 -14 -11 -14 -10 -2 6 16 20 18
21 27 5z m-100 -44 c1 -9 0 -13 -4 -10 -3 4 -7 14 -8 22 -1 9 0 13 4 10 3 -4
7 -14 8 -22z m-109 -99 c0 -8 -4 -12 -9 -9 -5 3 -6 10 -3 15 9 13 12 11 12 -6z
m-127 -99 c0 -2 -8 -10 -17 -17 -16 -13 -17 -12 -4 4 13 16 21 21 21 13z
m1246 -8 c3 -4 -1 -5 -10 -4 -8 1 -18 5 -22 8 -3 4 1 5 10 4 8 -1 18 -5 22 -8z
m-440 -124 c0 -14 -4 -27 -9 -31 -6 -3 -7 -1 -3 5 3 6 2 14 -4 17 -8 5 -8 11
-1 19 6 7 9 16 6 19 -3 4 -2 5 2 2 4 -3 8 -17 9 -31z m-866 22 c0 -2 -8 -10
-17 -17 -16 -13 -17 -12 -4 4 13 16 21 21 21 13z m-70 -100 c0 -2 -8 -10 -17
-17 -16 -13 -17 -12 -4 4 13 16 21 21 21 13z m677 -93 c0 -9 -4 -10 -14 -2 -7
6 -13 12 -13 14 0 1 6 2 13 2 8 0 14 -6 14 -14z m41 -59 c0 -17 -3 -22 -8 -13
-5 6 -6 18 -3 26 8 19 11 16 11 -13z m-195 -217 c3 -8 -1 -14 -8 -14 -7 0 -11
6 -8 14 3 7 6 13 8 13 2 0 5 -6 8 -13z m-1658 -1466 c3 -5 2 -12 -3 -15 -5 -3
-9 1 -9 9 0 17 3 19 12 6z m36 -18 c13 -16 12 -17 -3 -4 -10 7 -18 15 -18 17
0 8 8 3 21 -13z m-80 -10 c13 -16 12 -17 -3 -4 -10 7 -18 15 -18 17 0 8 8 3
21 -13z m2840 -3101 c-1 -1197 -5 -2179 -7 -2181 -4 -4 -2026 438 -2033 445
-2 2 28 583 68 1291 106 1890 129 2295 134 2300 7 6 1831 330 1837 326 2 -2 3
-984 1 -2181z m-2669 1397 c3 -9 25 -9 86 0 95 12 248 5 306 -16 97 -33 142
-95 132 -180 -5 -44 -3 -53 9 -53 11 0 14 -7 9 -24 -3 -13 -1 -26 4 -30 12 -7
6 -589 -7 -732 -9 -103 -23 -145 -60 -178 -11 -10 -27 -40 -36 -67 -11 -33
-26 -54 -46 -66 -16 -10 -29 -21 -29 -27 0 -5 -8 -15 -17 -22 -14 -10 -17 -25
-15 -75 2 -35 10 -79 18 -98 9 -22 12 -50 8 -76 -3 -26 0 -62 10 -96 9 -30 17
-78 19 -107 1 -28 7 -54 13 -56 7 -3 9 -29 6 -78 -4 -61 -1 -81 16 -114 15
-29 21 -69 27 -159 6 -107 29 -214 43 -200 3 3 11 0 19 -6 16 -14 9 -92 -14
-156 -13 -34 -21 -43 -40 -43 -13 0 -26 -7 -29 -15 -4 -8 -10 -12 -16 -9 -5 3
-18 -2 -29 -12 -10 -9 -22 -14 -26 -11 -3 4 -12 2 -18 -3 -9 -7 -32 -2 -76 17
-76 32 -72 29 -74 51 0 9 -5 18 -9 19 -15 2 -26 27 -26 56 0 15 -5 27 -11 27
-8 0 -9 19 -4 60 4 37 3 65 -3 73 -11 13 -21 102 -21 189 0 32 -9 92 -21 133
-12 42 -20 83 -19 93 1 9 -1 33 -5 52 -7 40 -18 177 -22 293 -1 45 -8 85 -15
93 -7 9 -15 34 -18 57 -5 38 -11 45 -61 74 -30 18 -65 33 -78 33 -36 0 -102
-42 -102 -65 0 -11 -14 -182 -30 -379 -16 -198 -27 -370 -24 -383 4 -13 3 -80
-1 -149 l-7 -125 -42 -31 c-23 -17 -40 -36 -38 -45 2 -8 -1 -12 -7 -9 -5 4
-12 2 -16 -3 -6 -11 -88 10 -110 29 -8 7 -15 24 -15 38 0 14 -7 33 -16 43 -15
17 -14 45 15 365 20 218 28 350 21 354 -11 7 96 1228 110 1245 5 6 16 74 24
149 12 113 20 148 43 194 21 42 35 58 58 65 17 5 37 16 46 23 8 8 21 14 28 14
6 0 29 12 51 26 35 23 80 40 117 43 6 1 13 -4 15 -10z"/>
<path d="M4430 5985 c-269 -40 -292 -45 -403 -90 -65 -26 -120 -53 -122 -59
-2 -6 -20 -348 -40 -761 -20 -412 -39 -815 -43 -894 l-7 -144 70 -32 c38 -18
80 -35 93 -39 18 -6 22 -15 22 -47 0 -38 -2 -40 -100 -105 -84 -56 -100 -71
-100 -93 0 -14 -9 -192 -19 -396 -11 -203 -16 -373 -13 -376 4 -3 261 -50 572
-104 l565 -97 122 65 c67 35 141 81 164 101 51 44 45 -93 54 1049 l7 869 42
119 42 120 -37 172 c-37 166 -38 179 -39 373 l0 202 -35 26 -35 27 0 -30 c0
-17 -3 -31 -6 -31 -9 0 -144 113 -144 121 0 4 15 9 33 11 l32 3 -36 27 c-31
25 -51 30 -170 43 -74 8 -145 14 -159 14 -14 -1 -153 -20 -310 -44z m275 -338
l100 -22 3 -38 c3 -36 5 -38 30 -33 15 3 47 6 72 8 41 2 45 1 44 -20 0 -12 -1
-62 -2 -111 l-2 -89 -75 -41 -75 -42 0 -127 c-1 -70 -5 -269 -10 -442 l-8
-315 39 -47 39 -47 -5 -118 c-2 -65 -7 -242 -10 -393 l-6 -275 -39 -33 -40
-34 0 -82 0 -83 -167 -13 c-201 -17 -223 -17 -335 0 l-88 12 6 157 c2 86 7
171 9 189 4 31 2 32 -31 32 -19 0 -34 4 -34 8 0 4 16 38 36 75 l35 67 -32 40
-33 41 38 107 38 107 23 602 24 602 -24 148 c-14 81 -25 157 -25 169 0 19 11
21 183 41 233 26 206 26 322 0z"/>
<path d="M5110 5907 c0 -31 5 -35 36 -29 l25 5 -22 23 c-28 30 -39 30 -39 1z"/>
<path d="M2875 5447 c-49 -5 -91 -11 -93 -12 -10 -8 -55 -259 -66 -365 -8 -69
-21 -164 -31 -212 -13 -66 -15 -91 -6 -101 7 -9 9 -35 5 -76 l-7 -61 66 0 c36
0 92 7 124 15 31 8 72 15 90 15 18 0 33 5 33 10 0 6 11 10 25 10 13 0 28 8 33
18 24 46 43 181 58 421 17 259 17 263 -2 274 -10 6 -33 25 -51 44 -35 36 -32
36 -178 20z"/>
<path d="M4700 9804 c0 -6 8 -18 18 -27 15 -14 19 -15 19 -2 0 8 -4 12 -8 9
-4 -2 -12 4 -18 13 -6 10 -11 13 -11 7z"/>
<path d="M5261 9684 c6 -7 15 -12 19 -9 4 3 11 -2 14 -11 3 -8 10 -12 16 -9 5
3 10 1 10 -5 0 -6 5 -8 10 -5 6 3 10 1 10 -4 0 -6 8 -11 17 -11 9 0 14 -3 11
-6 -3 -3 16 -27 43 -55 26 -27 46 -49 44 -49 -2 0 6 -11 18 -24 20 -21 91
-149 92 -165 1 -14 27 -52 32 -47 4 3 13 0 21 -7 13 -10 14 -9 3 13 -11 24
-11 24 4 5 8 -11 13 -25 11 -32 -3 -7 -1 -13 5 -13 6 0 7 -4 4 -10 -3 -5 0
-10 7 -10 9 0 9 -3 -2 -10 -13 -8 -13 -10 2 -10 11 0 16 -6 13 -20 -2 -11 1
-20 7 -20 6 0 8 -3 5 -7 -4 -3 0 -17 9 -31 9 -13 11 -21 5 -18 -7 5 -9 1 -5
-8 3 -9 11 -16 18 -16 6 0 4 -5 -4 -10 -12 -8 -12 -10 5 -10 17 0 17 -2 5 -10
-11 -7 -11 -10 -2 -10 7 0 10 -4 7 -10 -3 -5 0 -10 7 -10 10 0 10 -2 -1 -9
-11 -7 -11 -9 0 -14 11 -4 11 -6 -1 -6 -13 -1 -13 -3 -1 -10 8 -5 16 -17 17
-25 1 -9 -2 -13 -8 -10 -6 4 -5 -2 1 -15 7 -11 9 -21 5 -21 -3 0 -2 -6 5 -13
8 -10 7 -17 -1 -25 -9 -9 -9 -12 0 -12 8 0 9 -7 4 -22 -5 -13 -7 -29 -6 -35 1
-7 2 -21 3 -30 1 -16 3 -16 11 -3 7 11 10 11 10 2 0 -8 5 -10 12 -6 7 5 24 8
38 8 21 1 25 5 24 31 -2 27 -9 66 -14 73 -2 1 -3 5 -4 10 -14 51 -29 96 -41
119 -8 15 -15 33 -15 39 0 25 -138 316 -152 322 -5 2 -8 9 -8 16 0 17 -121
167 -154 191 -15 11 -37 28 -49 38 -24 21 -114 69 -135 73 -10 2 -10 -1 -1
-12z m336 -377 c1 -11 1 -18 0 -16 -2 2 -8 11 -15 20 -9 12 -9 16 1 16 7 0 14
-9 14 -20z"/>
<path d="M4010 9529 c0 -5 5 -7 10 -4 6 3 10 8 10 11 0 2 -4 4 -10 4 -5 0 -10
-5 -10 -11z"/>
<path d="M5293 9455 c0 -8 4 -12 9 -9 5 3 6 10 3 15 -9 13 -12 11 -12 -6z"/>
<path d="M4846 9433 c-6 -14 -5 -15 5 -6 7 7 10 15 7 18 -3 3 -9 -2 -12 -12z"/>
<path d="M3689 9393 c-13 -16 -12 -17 4 -4 9 7 17 15 17 17 0 8 -8 3 -21 -13z"/>
<path d="M3757 9220 c-8 -11 -17 -17 -21 -13 -4 4 -4 -1 0 -10 3 -10 7 -17 8
-15 1 2 10 15 19 31 20 31 15 37 -6 7z"/>
<path d="M3539 9133 c-13 -16 -12 -17 4 -4 16 13 21 21 13 21 -2 0 -10 -8 -17
-17z"/>
<path d="M3467 8981 c-4 -17 -3 -21 5 -13 5 5 8 16 6 23 -3 8 -7 3 -11 -10z"/>
<path d="M3443 8933 c-3 -10 -8 -22 -11 -27 -3 -5 0 -6 5 -3 11 7 25 47 17 47
-3 0 -7 -8 -11 -17z"/>
<path d="M3420 8875 c-6 -8 -10 -19 -8 -26 2 -6 9 0 16 15 13 29 10 33 -8 11z"/>
<path d="M3399 8813 c-13 -16 -12 -17 4 -4 9 7 17 15 17 17 0 8 -8 3 -21 -13z"/>
<path d="M3385 8779 c-4 -6 -5 -12 -2 -15 2 -3 7 2 10 11 7 17 1 20 -8 4z"/>
<path d="M4146 8773 c-6 -14 -5 -15 5 -6 7 7 10 15 7 18 -3 3 -9 -2 -12 -12z"/>
<path d="M3366 8733 c-6 -14 -5 -15 5 -6 7 7 10 15 7 18 -3 3 -9 -2 -12 -12z"/>
<path d="M4136 8733 c-6 -14 -5 -15 5 -6 7 7 10 15 7 18 -3 3 -9 -2 -12 -12z"/>
<path d="M5740 8710 c-8 -5 -10 -10 -5 -10 6 0 17 5 25 10 8 5 11 10 5 10 -5
0 -17 -5 -25 -10z"/>
<path d="M3351 8693 c-5 -10 -9 -21 -10 -25 -1 -8 -2 -13 -6 -25 -3 -13 -25
-65 -31 -74 -3 -5 -2 -9 1 -9 5 0 37 65 40 80 0 3 4 11 8 18 5 6 6 12 2 12 -3
0 -1 9 5 20 6 11 8 20 6 20 -3 0 -10 -8 -15 -17z"/>
<path d="M5690 8690 c-8 -5 -10 -10 -5 -10 6 0 17 5 25 10 8 5 11 10 5 10 -5
0 -17 -5 -25 -10z"/>
<path d="M5640 8670 c-8 -5 -10 -10 -5 -10 6 0 17 5 25 10 8 5 11 10 5 10 -5
0 -17 -5 -25 -10z"/>
<path d="M5457 8598 c-81 -33 -146 -62 -144 -64 4 -4 296 112 305 121 12 12
-21 0 -161 -57z"/>
<path d="M4092 8583 c-6 -15 -13 -44 -16 -63 l-5 -35 10 35 c6 19 15 46 20 59
5 13 8 25 6 28 -2 2 -9 -9 -15 -24z"/>
<path d="M4210 8573 c0 -14 -2 -15 -9 -5 -6 11 -10 10 -15 -4 -4 -10 -4 -15 0
-11 4 4 13 2 21 -4 7 -6 13 -8 13 -3 0 5 5 2 10 -6 6 -9 10 -10 10 -3 0 6 -5
15 -10 18 -6 4 -8 10 -5 15 3 5 1 11 -5 15 -5 3 -10 -2 -10 -12z"/>
<path d="M4060 8450 c0 -5 1 -11 2 -12 1 -2 -5 -14 -12 -28 -7 -14 -15 -35
-17 -47 -1 -13 -5 -35 -8 -50 -9 -45 -21 -120 -29 -168 -2 -16 -10 -44 -17
-62 -15 -36 -7 -52 16 -33 9 7 13 22 11 36 -3 15 -1 22 6 18 6 -4 6 2 -1 15
-11 20 -8 26 13 22 5 -1 4 4 -2 11 -7 8 -7 19 -2 28 5 9 5 19 -1 26 -7 8 -4
17 6 28 12 12 13 16 3 16 -10 0 -9 3 2 10 10 7 11 10 2 10 -10 0 -9 7 2 29 9
16 12 31 9 34 -3 4 0 13 7 22 9 11 9 15 1 15 -9 0 -9 5 -1 21 13 24 23 69 15
69 -3 0 -5 -4 -5 -10z"/>
<path d="M4212 8435 c4 -4 3 -16 -3 -26 -5 -11 -7 -19 -5 -19 3 0 10 9 16 19
7 15 7 22 -2 27 -7 4 -10 4 -6 -1z"/>
<path d="M4193 8365 c0 -8 4 -12 9 -9 5 3 6 10 3 15 -9 13 -12 11 -12 -6z"/>
<path d="M4147 8071 c-423 -170 -771 -312 -774 -315 -4 -3 -4 -8 -1 -11 4 -4
1546 619 1556 630 3 3 1 5 -4 5 -5 -1 -355 -140 -777 -309z"/>
<path d="M4125 8149 c-4 -6 -5 -12 -2 -15 2 -3 7 2 10 11 7 17 1 20 -8 4z"/>
<path d="M5030 7901 c0 -6 4 -13 10 -16 6 -3 7 1 4 9 -7 18 -14 21 -14 7z"/>
<path d="M2885 7520 c-3 -5 -12 -7 -20 -3 -18 6 -19 -6 -4 -27 9 -13 10 -12 5
3 -3 10 -2 16 3 13 5 -3 14 1 21 9 7 8 10 15 7 15 -3 0 -8 -4 -12 -10z"/>
<path d="M2880 7490 c0 -5 5 -10 10 -10 6 0 10 5 10 10 0 6 -4 10 -10 10 -5 0
-10 -4 -10 -10z"/>
<path d="M3140 7311 c0 -7 -5 -9 -12 -5 -7 5 -8 3 -3 -5 5 -9 10 -10 18 -2 6
6 8 14 4 18 -4 3 -7 1 -7 -6z"/>
</g>
</svg>
